<svg width="17" height="10" viewBox="0 0 17 10" fill="none" xmlns="http://www.w3.org/2000/svg">
<path d="M16 4.325C16.3728 4.325 16.675 4.62721 16.675 5C16.675 5.37279 16.3728 5.675 16 5.675V4.325ZM0.522703 5.4773C0.259099 5.21369 0.259099 4.78631 0.522703 4.5227L4.81838 0.22703C5.08198 -0.0365744 5.50937 -0.0365744 5.77297 0.22703C6.03657 0.490633 6.03657 0.91802 5.77297 1.18162L1.95459 5L5.77297 8.81838C6.03657 9.08198 6.03657 9.50937 5.77297 9.77297C5.50937 10.0366 5.08198 10.0366 4.81838 9.77297L0.522703 5.4773ZM16 5.675H1V4.325H16V5.675Z" fill="#0B223E"/>
</svg>
