<svg width="40" height="40" viewBox="0 0 40 40" fill="none" xmlns="http://www.w3.org/2000/svg">
<circle cx="20" cy="20" r="20" fill="#0B223E"/>
<g clip-path="url(#clip0_12_608)">
<path d="M21.8331 19.9989V27.0024C21.8697 27.269 21.7781 27.5534 21.5673 27.7401C21.4825 27.8225 21.3818 27.8878 21.2709 27.9324C21.16 27.977 21.0412 28 20.9211 28C20.8011 28 20.6822 27.977 20.5714 27.9324C20.4605 27.8878 20.3598 27.8225 20.275 27.7401L18.4327 25.9537C18.3328 25.8589 18.2568 25.743 18.2106 25.615C18.1645 25.4871 18.1496 25.3505 18.1669 25.216V19.9989H18.1394L12.8602 13.4398C12.7113 13.2545 12.6442 13.0196 12.6734 12.7865C12.7026 12.5533 12.8257 12.3409 13.016 12.1955C13.1901 12.0711 13.3826 12 13.5842 12H26.4158C26.6174 12 26.8099 12.0711 26.984 12.1955C27.1743 12.3409 27.2975 12.5533 27.3267 12.7865C27.3558 13.0196 27.2887 13.2545 27.1398 13.4398L21.8606 19.9989H21.8331Z" fill="white"/>
</g>
<defs>
<clipPath id="clip0_12_608">
<rect width="16" height="16" fill="white" transform="translate(12 12)"/>
</clipPath>
</defs>
</svg>
